<?xml version="1.0" encoding="UTF-8" standalone="no"?>
<!-- Created with Inkscape (http://www.inkscape.org/) -->

<svg
   xmlns:dc="http://purl.org/dc/elements/1.1/"
   xmlns:cc="http://creativecommons.org/ns#"
   xmlns:rdf="http://www.w3.org/1999/02/22-rdf-syntax-ns#"
   xmlns:svg="http://www.w3.org/2000/svg"
   xmlns="http://www.w3.org/2000/svg"
   xmlns:sodipodi="http://sodipodi.sourceforge.net/DTD/sodipodi-0.dtd"
   xmlns:inkscape="http://www.inkscape.org/namespaces/inkscape"
   width="135.46666mm"
   height="135.46666mm"
   viewBox="0 0 135.46666 135.46666"
   version="1.1"
   id="svg8"
   inkscape:version="0.92.3 (2405546, 2018-03-11)"
   sodipodi:docname="darkmodeIicon.svg">
  <defs
     id="defs2" />
  <sodipodi:namedview
     id="base"
     pagecolor="#ffffff"
     bordercolor="#666666"
     borderopacity="1.0"
     inkscape:pageopacity="0.0"
     inkscape:pageshadow="2"
     inkscape:zoom="0.49497475"
     inkscape:cx="-523.59936"
     inkscape:cy="173.79223"
     inkscape:document-units="mm"
     inkscape:current-layer="layer1"
     showgrid="false"
     inkscape:snap-global="false"
     fit-margin-top="0"
     fit-margin-left="0"
     fit-margin-right="0"
     fit-margin-bottom="0"
     inkscape:window-width="1920"
     inkscape:window-height="1009"
     inkscape:window-x="-8"
     inkscape:window-y="-8"
     inkscape:window-maximized="1" />
  <metadata
     id="metadata5">
    <rdf:RDF>
      <cc:Work
         rdf:about="">
        <dc:format>image/svg+xml</dc:format>
        <dc:type
           rdf:resource="http://purl.org/dc/dcmitype/StillImage" />
        <dc:title></dc:title>
      </cc:Work>
    </rdf:RDF>
  </metadata>
  <g
     inkscape:label="Layer 1"
     inkscape:groupmode="layer"
     id="layer1"
     transform="translate(-47.455369,-22.20749)">
    <path
       style="opacity:1;fill:#000000;fill-opacity:1;stroke:none;stroke-width:0.26458332"
       d="M 115.18869,22.20749 A 67.73333,67.73333 0 0 0 47.455369,89.940824 67.73333,67.73333 0 0 0 115.18869,157.67415 67.73333,67.73333 0 0 0 182.92203,89.940824 67.73333,67.73333 0 0 0 115.18869,22.20749 Z m 0,5.291666 A 62.441661,62.441661 0 0 1 177.63036,89.940824 62.441661,62.441661 0 0 1 115.18869,152.38248 62.441661,62.441661 0 0 1 52.747029,89.940824 62.441661,62.441661 0 0 1 115.18869,27.499156 Z"
       id="path826"
       inkscape:connector-curvature="0" />
    <path
       style="opacity:1;fill:#000000;fill-opacity:1;stroke:none;stroke-width:0.19371279"
       d="m 113.37853,40.350309 v 49.590256 49.590775 a 49.590473,49.590473 0 0 0 42.94673,-24.79539 49.590473,49.590473 0 0 0 0,-49.59077 49.590473,49.590473 0 0 0 -42.94673,-24.794871 z m 4.00596,4.194577 c 19.96648,1.451748 37.52084,17.602282 40.87296,37.282995 5.36325,25.088869 -14.92122,51.585349 -40.34793,53.527479 -1.20107,-26.28695 -0.24732,-54.152305 -0.49971,-81.033294 -0.008,-3.259114 -0.0168,-6.518066 -0.0253,-9.77718 z"
       id="circle830"
       inkscape:connector-curvature="0" />
  </g>
</svg>
