<?xml version="1.0" encoding="UTF-8" standalone="no"?>
<!-- Created with Inkscape (http://www.inkscape.org/) -->

<svg
   xmlns:dc="http://purl.org/dc/elements/1.1/"
   xmlns:cc="http://creativecommons.org/ns#"
   xmlns:rdf="http://www.w3.org/1999/02/22-rdf-syntax-ns#"
   xmlns:svg="http://www.w3.org/2000/svg"
   xmlns="http://www.w3.org/2000/svg"
   xmlns:sodipodi="http://sodipodi.sourceforge.net/DTD/sodipodi-0.dtd"
   xmlns:inkscape="http://www.inkscape.org/namespaces/inkscape"
   width="85.258972mm"
   height="85.258972mm"
   viewBox="0 0 85.25897 85.258973"
   version="1.1"
   id="svg8"
   inkscape:version="0.92.3 (2405546, 2018-03-11)"
   sodipodi:docname="petrol.svg">
  <defs
     id="defs2" />
  <sodipodi:namedview
     id="base"
     pagecolor="#ffffff"
     bordercolor="#666666"
     borderopacity="1.0"
     inkscape:pageopacity="0.0"
     inkscape:pageshadow="2"
     inkscape:zoom="0.35"
     inkscape:cx="-64.211076"
     inkscape:cy="297.33428"
     inkscape:document-units="mm"
     inkscape:current-layer="layer1"
     showgrid="false"
     inkscape:window-width="958"
     inkscape:window-height="1000"
     inkscape:window-x="953"
     inkscape:window-y="0"
     inkscape:window-maximized="0"
     fit-margin-top="0"
     fit-margin-left="0"
     fit-margin-right="0"
     fit-margin-bottom="0" />
  <metadata
     id="metadata5">
    <rdf:RDF>
      <cc:Work
         rdf:about="">
        <dc:format>image/svg+xml</dc:format>
        <dc:type
           rdf:resource="http://purl.org/dc/dcmitype/StillImage" />
        <dc:title></dc:title>
      </cc:Work>
    </rdf:RDF>
  </metadata>
  <g
     inkscape:label="Layer 1"
     inkscape:groupmode="layer"
     id="layer1"
     transform="translate(-43.964325,-56.842415)">
    <circle
       style="opacity:1;fill:#ff0000;fill-opacity:1;stroke:none;stroke-width:0.12559833"
       id="path1371"
       cx="86.593811"
       cy="99.471901"
       r="42.629486" />
    <path
       style="fill:#ffffff;stroke-width:0.26458335"
       d="m 118.24985,123.66298 c -0.90627,-0.57833 -0.88036,-0.43556 -0.4381,-2.41422 0.61422,-2.74807 -0.30826,-5.11197 -3.07431,-7.87802 l -1.72421,-1.72421 -1.3151,1.50616 -1.3151,1.50617 -2.404,-1.9726 -2.404,-1.97259 -1.18949,1.38945 c -2.36233,2.75943 -3.32995,3.55301 -4.746597,3.89286 -1.675141,0.40186 -2.614739,0.20173 -4.264128,-0.90822 -1.564159,-1.05261 -8.805209,-7.14288 -9.968064,-8.38391 -1.112795,-1.1876 -1.525662,-2.58316 -1.326875,-4.48506 l 0.160695,-1.53744 -5.484946,-4.671723 c -3.016721,-2.56945 -5.519324,-4.76092 -5.561341,-4.86993 -0.04202,-0.10902 0.523531,-0.91618 1.256771,-1.79371 0.733241,-0.87752 1.333165,-1.71413 1.333165,-1.85914 0,-0.37564 -5.138125,-4.26594 -6.015455,-4.55456 -0.40228,-0.13235 -3.1722,-0.54615 -6.15538,-0.91958 -7.55234,-0.94537 -6.961,-0.7638 -6.78354,-2.08282 0.0812,-0.60376 0.28812,-2.27355 0.45975,-3.71064 l 0.31207,-2.6129 1.35222,0.15477 c 4.99263,0.57145 12.42756,1.5488 13.61681,1.78999 1.217086,0.24683 1.896038,0.67528 4.818964,3.04095 1.871254,1.51449 3.515695,2.75363 3.654313,2.75363 0.138618,0 0.62923,-0.47625 1.090248,-1.05834 0.461018,-0.58208 1.025184,-1.05833 1.253699,-1.05833 0.228516,0 3.462965,1.56352 7.187664,3.47448 7.26858,3.72915 13.329207,6.87564 13.479347,6.99805 0.0509,0.0415 -0.41834,1.11162 -1.04282,2.37801 l -1.1354,2.30251 1.02868,0.824 c 0.90009,0.72099 13.09935,10.995083 13.73216,11.565083 0.13727,0.12364 -0.15354,0.7017 -0.68017,1.35203 -0.50597,0.62483 -1.0074,1.28414 -1.11428,1.46515 -0.12352,0.20916 0.47116,0.98542 1.63184,2.13008 3.50884,3.46045 4.78635,7.44844 3.49347,10.90556 -0.32585,0.87132 -0.66724,1.57552 -0.75864,1.56488 -0.0914,-0.0106 -0.52336,-0.24728 -0.95992,-0.52587 z M 99.803757,113.21205 c 0.324153,-0.22705 1.304623,-1.24385 2.178823,-2.25957 l 1.58947,-1.84677 -2.57903,-2.25921 c -3.149971,-2.75935 -6.031905,-5.1279 -6.239391,-5.1279 -0.08469,0 0.193357,0.8423 0.617879,1.87178 0.424521,1.02947 1.20111,3.19958 1.72575,4.82246 l 0.953894,2.95069 -0.579443,0.4692 c -0.318696,0.25806 -0.666864,0.46921 -0.77371,0.46921 -0.528228,0 -1.206159,-1.31514 -2.40311,-4.66189 -1.32238,-3.69744 -3.544843,-8.643283 -4.085627,-9.092093 -0.52137,-0.4327 -3.577125,3.694243 -3.577125,4.831073 0,0.98397 0.786366,1.7694 6.848766,6.84068 4.332973,3.62459 4.981798,3.93165 6.322854,2.99234 z m -39.163602,3.99643 c -2.41796,-0.92579 -4.08603,-2.60834 -5.21394,-5.25921 -1.559,-3.66399 0.31259,-7.78295 7.69099,-16.926183 0.41683,-0.51654 0.49953,-0.44519 2.72842,2.35381 2.60976,3.277313 4.64073,6.495433 5.62294,8.909693 1.593911,3.91781 -0.0565,8.26947 -3.93841,10.38455 -1.1817,0.64385 -1.75827,0.7765 -3.65219,0.84025 -1.48235,0.0499 -2.58602,-0.0534 -3.23781,-0.30291 z"
       id="path4544"
       inkscape:connector-curvature="0" />
    <ellipse
       style="opacity:1;fill:#ff0000;fill-opacity:1;stroke:none;stroke-width:0.26458332"
       id="path1373"
       cx="-86.602219"
       cy="115.76998"
       rx="0.4009043"
       ry="0.93544334" />
  </g>
</svg>
